<?xml version="1.0" standalone="no"?><!DOCTYPE svg PUBLIC "-//W3C//DTD SVG 1.1//EN" "http://www.w3.org/Graphics/SVG/1.1/DTD/svg11.dtd"><svg t="1758537651554" class="icon" viewBox="0 0 1024 1024" version="1.1" xmlns="http://www.w3.org/2000/svg" p-id="5969" xmlns:xlink="http://www.w3.org/1999/xlink" width="200" height="200"><path d="M583.116914 911.398219h5.92641l-71.116914 94.822552-71.116915-94.822552C197.900296 875.839762 26.034421 638.783382 61.592878 389.874183S334.207715-30.900892 583.116914 4.657565s420.775075 272.614837 385.216618 521.524037c-29.632048 201.497923-189.645104 355.58457-385.216618 385.216617z" fill="#6B6AF8" p-id="5970"></path><path d="M292.722848 413.579821c0 35.558457 29.632048 59.264095 59.264095 59.264095 35.558457 0 59.264095-29.632048 59.264095-59.264095 0-35.558457-29.632048-59.264095-59.264095-59.264095s-59.264095 29.632048-59.264095 59.264095z" fill="#FFFFFF" p-id="5971"></path><path d="M683.865876 354.315726h-237.056381c-5.92641 0-5.92641 5.92641-5.926409 5.926409v106.675372c0 5.92641 5.92641 5.92641 5.926409 5.926409H292.722848c-11.852819 0-17.779229-5.92641-17.779228-17.779228V289.125221c0-5.92641-5.92641-5.92641-5.92641-5.926409h-29.632047v367.437389h35.558457v-23.705638c0-5.92641 5.92641-5.92641 5.926409-5.926409h480.03917c5.92641 0 5.92641 5.92641 5.92641 5.926409v23.705638h29.632047V496.549554c5.92641-77.043324-47.411276-142.233828-112.60178-142.233828z" fill="#FFFFFF" p-id="5972"></path></svg>